<svg width="467" height="159" viewBox="0 0 467 159" fill="none" xmlns="http://www.w3.org/2000/svg">
<path d="M0.75 7C0.75 3.54822 3.54822 0.75 7 0.75L460 0.75C463.452 0.75 466.25 3.54822 466.25 7V120.995C466.193 121.052 466.125 121.119 466.046 121.197C465.769 121.473 465.362 121.877 464.84 122.392C463.797 123.421 462.298 124.892 460.476 126.657C456.831 130.188 451.894 134.894 446.723 139.598C441.55 144.305 436.154 149.001 431.588 152.516C429.304 154.275 427.243 155.726 425.53 156.734C424.674 157.238 423.919 157.623 423.277 157.88C422.623 158.142 422.138 158.25 421.806 158.25H420.899H419.991H419.081H418.17H417.257H416.343H415.427H414.51H413.592H412.672H411.751H410.828H409.904H408.979H408.053H407.125H406.196H405.266H404.334H403.401H402.467H401.532H400.595H399.657H398.718H397.778H396.837H395.894H394.95H394.006H393.06H392.112H391.164H390.215H389.264H388.313H387.36H386.406H385.451H384.496H383.539H382.581H381.622H380.662H379.701H378.739H377.776H376.813H375.848H374.882H373.916H372.948H371.98H371.01H370.04H369.069H368.097H367.124H366.151H365.176H364.201H363.225H362.248H361.27H360.292H359.312H358.332H357.352H356.37H355.388H354.405H353.422H352.437H351.452H350.467H349.48H348.493H347.506H346.518H345.529H344.54H343.55H342.559H341.568H340.576H339.584H338.591H337.598H336.604H335.609H334.615H333.619H332.623H331.627H330.63H329.633H328.636H327.638H326.639H325.64H324.641H323.642H322.642H321.641H320.641H319.64H318.638H317.637H316.635H315.633H314.63H313.627H312.624H311.621H310.618H309.614H308.61H307.606H306.602H305.597H304.592H303.587H302.582H301.577H300.572H299.567H298.561H297.556H296.55H295.544H294.538H293.532H292.526H291.521H290.515H289.509H288.503H287.497H286.491H285.485H284.479H283.473H282.467H281.462H280.456H279.451H278.445H277.44H276.435H275.43H274.425H273.42H272.416H271.412H270.408H269.404H268.4H267.397H266.393H265.39H264.388H263.385H262.383H261.381H260.38H259.378H258.377H257.377H256.377H255.377H254.377H253.378H252.379H251.381H250.383H249.385H248.388H247.392H246.395H245.4H244.405H243.41H242.415H241.422H240.428H239.436H238.444H237.452H236.461H235.47H234.481H233.491H232.503H231.514H230.527H229.54H228.554H227.569H226.584H225.6H224.616H223.633H222.651H221.67H220.689H219.709H218.73H217.752H216.774H215.798H214.822H213.847H212.872H211.899H210.926H209.954H208.983H208.013H207.044H206.076H205.108H204.142H203.176H202.212H201.248H200.286H199.324H198.363H197.403H196.445H195.487H194.53H193.575H192.62H191.667H190.714H189.763H188.812H187.863H186.915H185.968H185.022H184.078H183.134H182.192H181.251H180.311H179.372H178.434H177.498H176.563H175.629H174.696H173.765H172.835H171.906H170.978H170.052H169.127H168.204H167.281H166.36H165.441H164.523H163.606H162.691H161.777H160.864H159.953H159.043H158.135H157.228H156.323H155.419H154.517H153.616H152.717H151.819H150.922H150.028H149.134H148.243H147.353H146.464H145.577H144.692H143.809H142.927H142.046H141.168H140.29H139.415H138.541H137.669H136.799H135.931H135.064H134.199H133.335H132.474H131.614H130.756H129.9H129.045H128.192H127.342H126.493H125.645H124.8H123.957H123.115H122.276H121.438H120.602H119.768H118.936H118.106H117.278H116.452H115.628H114.806H113.985H113.167H112.351H111.537H110.725H109.915H109.107H108.301H107.497H106.696H105.896H105.099H104.303H103.51H102.719H101.93H101.143H100.359H99.5765H98.7963H98.0184H97.2426H96.4692H95.6979H94.9289H94.1622H93.3978H92.6356H91.8757H91.1182H90.363H89.6101H88.8595H88.1113H87.3655H86.622H85.881H85.1423H84.406H83.6722H82.9407H82.2117H81.4852H80.7611H80.0395H79.3204H78.6038H77.8897H77.1781H76.469H75.7624H75.0584H74.357H73.6581H72.9618H72.2682H71.577H70.8886H70.2027H69.5195H68.8389H68.161H67.4857H66.8131H66.1432H65.476H64.8115H64.1498H63.4907H62.8344H62.1809H61.5301H60.8821H60.2369H59.5944H58.9548H58.318H57.684H57.0529H56.4246H55.7992H55.1766H54.5569H53.9402H53.3263H52.7153H52.1073H51.5022H50.9H50.3008H49.7046H49.1113H48.5211H47.9338H47.3495H46.7683H46.1901H45.615H45.0429H44.4738H43.9079H43.345H42.7852H42.2286H41.675H41.1246H40.5774H40.0332H39.4923H38.9545H38.4199H37.8885H37.3603H36.8353H36.3135H35.795H35.2797H34.7677H34.259H33.7535H33.2514H32.7525H32.2569H31.7647H31.2758H30.7903H30.3081H29.8293H29.3538H28.8818H28.4131H27.9479H27.486H27.0276H26.5727H26.1212H25.6732H25.2286H24.7875H24.35H23.9159H23.4854H23.0583H22.6349H22.2149H21.7986H21.3858H20.9766H20.571H20.169H19.7706H19.3758H18.9847H18.5972H18.2134H17.8332H17.4567H17.084H16.7149H16.3495H15.9879H15.63H15.2758H14.9254H14.5787H14.2359H13.8968H13.5615H13.2301H12.9024H12.5786H12.2586H11.9425H11.6302H11.3219H11.0174H10.7168H10.4201H10.1273H9.83844H9.55354H9.27258H8.99558H8.72256H8.45351H8.18846H7.92742H7.67039H7.41738H7.16841H6.92349C3.48243 158.25 0.75 155.463 0.75 152L0.75 7Z" fill="white" stroke="#6894B4" stroke-width="1.5"/>
</svg>
